<?xml version="1.0" encoding="UTF-8"?>
<svg version="1.1" xmlns="http://www.w3.org/2000/svg" width="500" height="500">
<path d="M0 0 C165 0 330 0 500 0 C500 165 500 330 500 500 C335 500 170 500 0 500 C0 335 0 170 0 0 Z " fill="#DDB1C9" transform="translate(0,0)"/>
<path d="M0 0 C165 0 330 0 500 0 C500 165 500 330 500 500 C399.35 500 298.7 500 195 500 C198.98162561 498.00918719 202.82681411 496.85992173 207.1015625 495.75 C207.91343521 495.53587967 208.72530792 495.32175934 209.56178284 495.10115051 C212.24808676 494.3951456 214.93631059 493.69686193 217.625 493 C219.01955917 492.63701309 219.01955917 492.63701309 220.44229126 492.26669312 C251.55427422 484.17827382 282.77772224 476.89695403 314.29217529 470.56338501 C369.93449842 459.61544796 369.93449842 459.61544796 424.89453125 445.76269531 C430.90376371 444.09210918 436.77956408 443.39406142 443 443 C442.98428955 441.86796143 442.9685791 440.73592285 442.95239258 439.56958008 C442.45171976 400.08184696 442.45171976 400.08184696 445.24609375 385.32421875 C447.18072617 375.04366049 447.17995598 364.53288822 447.29711914 354.10742188 C447.31661809 352.6499637 447.33648063 351.19251036 447.35667419 349.73506165 C447.41008449 345.80116816 447.45823756 341.86722681 447.50525212 337.93325233 C447.5559006 333.75913659 447.61097236 329.58507873 447.66539001 325.41101074 C447.7565068 318.37023323 447.84426616 311.32942005 447.92993164 304.28857422 C448.01677302 297.15343757 448.1068185 290.01835172 448.20043945 282.88330078 C448.97593698 227.4938949 448.97593698 227.4938949 449.01416397 172.10044861 C449.00032896 170.04878356 448.98902744 167.997117 448.9781189 165.94543457 C448.92665415 157.75224637 448.79525167 149.5650503 448.5625 141.375 C448.52964905 140.17612152 448.4967981 138.97724304 448.46295166 137.74203491 C447.78028645 115.47230547 444.9673718 93.94378018 441.09985352 72.03076172 C439.02161267 60.2069646 437.28135978 49.0309498 438 37 C431.85322102 38.05707187 425.70749675 39.12011654 419.5625 40.1875 C418.19984512 40.42401779 418.19984512 40.42401779 416.80966187 40.66531372 C404.60045469 42.78920072 392.42488578 45.00273402 380.30102539 47.5769043 C379.39344482 47.76679932 378.48586426 47.95669434 377.55078125 48.15234375 C376.78419189 48.31726318 376.01760254 48.48218262 375.2277832 48.65209961 C372.78798938 49.03310851 370.46548224 49.05895423 368 49 C368.10135254 49.73637695 368.20270508 50.47275391 368.30712891 51.23144531 C368.75923859 54.56937269 369.192312 57.90950195 369.625 61.25 C369.86476563 62.98830078 369.86476563 62.98830078 370.109375 64.76171875 C370.25117188 65.87675781 370.39296875 66.99179688 370.5390625 68.140625 C370.74329834 69.68024902 370.74329834 69.68024902 370.95166016 71.25097656 C371.00423529 74.2408556 370.78442185 75.61200884 369 78 C367.12475586 78.92822266 367.12475586 78.92822266 364.77734375 79.5390625 C363.87870605 79.77786133 362.98006836 80.01666016 362.05419922 80.26269531 C361.04631348 80.50600586 360.03842773 80.74931641 359 81 C357.90316895 81.26651367 356.80633789 81.53302734 355.67626953 81.80761719 C351.97626952 82.6846165 348.2705857 83.53287151 344.5625 84.375 C333.1597959 86.975979 333.1597959 86.975979 321.85449219 89.96679688 C313.91638715 92.21377788 305.98526989 93.71432576 297.84448242 95.04217529 C272.89945012 99.12799955 248.37199793 105.2914778 223.80632019 111.18847656 C217.12025944 112.79192528 210.42923078 114.36697597 203.72460938 115.89111328 C202.36490714 116.20189426 201.00522668 116.51277053 199.64556885 116.82374573 C197.10458394 117.4047967 194.56216257 117.97704701 192.01800537 118.54429626 C185.58198731 120.0158827 179.46151848 121.76430371 173.31512451 124.18528748 C169.86282411 125.40018212 167.61255032 125.67735318 164 125 C161.49419971 121.61647449 160.54859914 118.75811663 160.05078125 114.61328125 C159.92509766 113.59169922 159.79941406 112.57011719 159.66992188 111.51757812 C159.49299805 109.93106445 159.49299805 109.93106445 159.3125 108.3125 C159.18294922 107.27416016 159.05339844 106.23582031 158.91992188 105.16601562 C158.15938319 98.74771297 157.83009202 92.46099825 158 86 C124.87598104 92.1381738 92.04138686 98.50784129 59.75952148 108.26318359 C56.8553864 109.0386131 53.97069858 109.551479 51 110 C51.30800537 110.52182861 51.61601074 111.04365723 51.93334961 111.58129883 C56.04226875 120.89854806 55.36910063 133.5184398 55.83398438 143.6026001 C56.41752294 156.06025394 57.35085916 168.39395023 58.89208984 180.7746582 C60.17454941 191.12129491 60.99597648 201.48298152 61.76171875 211.87890625 C61.99875736 214.98372346 62.2613305 218.08538174 62.53125 221.1875 C63.67061304 234.55602635 64.32171281 247.89099898 64.57055664 261.30273438 C64.7571463 269.69342136 65.29440052 278.00664458 65.98828125 286.37109375 C66.71012889 295.18889074 67.1986449 303.97103596 67.38671875 312.81640625 C67.41027939 313.90694305 67.43384003 314.99747986 67.45811462 316.12106323 C67.50698708 318.40582213 67.55582975 320.69058167 67.60464478 322.9753418 C68.19473482 348.52287179 69.87824683 373.924552 72.0859108 399.3803215 C72.30817173 401.94995929 72.52690285 404.51987712 72.7449646 407.08987427 C74.37559866 426.19702494 76.3599894 445.19959595 79.23371887 464.16357422 C81.01211289 476.13883619 81.94341763 487.84930272 83 500 C55.61 500 28.22 500 0 500 C0 335 0 170 0 0 Z " fill="#0096B1" transform="translate(0,0)"/>
<path d="M0 0 C45.54 0 91.08 0 138 0 C138 165 138 330 138 500 C43.29 500 -51.42 500 -149 500 C-145.44660668 497.63107112 -141.95828766 496.82438646 -137.87109375 495.828125 C-136.65172119 495.52376526 -136.65172119 495.52376526 -135.40771484 495.21325684 C-132.75249232 494.55253867 -130.09516625 493.90081337 -127.4375 493.25 C-125.59834367 492.79608074 -123.75923256 492.34197821 -121.92016602 491.88769531 C-116.61610703 490.58077715 -111.30864192 489.28815821 -106 488 C-105.31873047 487.83419434 -104.63746094 487.66838867 -103.93554688 487.49755859 C-89.74028726 484.04515872 -75.49548734 481.09275298 -61.14038086 478.38525391 C-50.6365753 476.38717051 -40.23018251 474.04650836 -29.81906128 471.61581421 C-17.95936671 468.85092178 -6.0631198 466.33965329 5.875 463.9375 C22.02351802 460.68171364 38.0231527 457.02420591 54 453 C54.99128906 452.75088867 55.98257813 452.50177734 57.00390625 452.24511719 C57.95136719 452.00696289 58.89882813 451.76880859 59.875 451.5234375 C60.78032471 451.29615967 61.68564941 451.06888184 62.6184082 450.8347168 C64.24279721 450.42549364 65.86643884 450.013282 67.48901367 449.59692383 C72.30678076 448.37210439 77.13552554 447.35946372 82.0246582 446.45825195 C83.99062639 446.1857133 83.99062639 446.1857133 85 445 C85.03925234 442.89875529 85.01093364 440.79623245 84.95703125 438.6953125 C84.93447622 437.30861075 84.91304114 435.92189045 84.89257812 434.53515625 C84.85692309 432.39349303 84.81626771 430.25285404 84.75317383 428.11181641 C84.48940144 418.68281726 85.1220239 409.5972261 86.38157654 400.24693298 C89.8619205 374.21418134 89.89479182 348.07985484 90.17962241 321.85505158 C90.23354214 316.91263338 90.29550367 311.97036812 90.36221313 307.02810669 C90.88268097 268.33248076 91.17754997 229.63686509 91.1875 190.9375 C91.18808914 189.91490711 91.18867828 188.89231422 91.18928528 187.83873367 C91.19899486 168.22290663 91.15185288 148.61240848 90.5703125 129.00390625 C90.53443527 127.74617905 90.49855804 126.48845184 90.46159363 125.19261169 C89.91608914 109.15332466 87.3021161 93.51613009 84.56030273 77.734375 C82.16072087 63.56913853 80.63637177 49.2695828 79 35 C74.90180707 32.98167786 72.29019666 32.92445056 67.8125 33.65234375 C66.57306641 33.84868408 65.33363281 34.04502441 64.05664062 34.24731445 C62.70432763 34.47679099 61.35211653 34.70686868 60 34.9375 C58.60101761 35.16625886 57.20192667 35.3943547 55.80273438 35.62182617 C38.81116668 38.42071099 21.90098965 41.70464984 5 45 C4.91959473 44.351521 4.83918945 43.70304199 4.75634766 43.03491211 C4.37992924 40.00235434 4.00253282 36.96991924 3.625 33.9375 C3.48924561 32.84453613 3.35349121 31.75157227 3.21362305 30.62548828 C2.31408344 23.41534058 1.36314012 16.21605057 0.33203125 9.0234375 C0 6 0 6 0 0 Z " fill="#0096B1" transform="translate(362,0)"/>
<path d="M0 0 C0.12117187 1.30453125 0.24234375 2.6090625 0.3671875 3.953125 C1.36453541 14.98679299 1.36453541 14.98679299 3 25.9375 C4.14289998 32.25023659 4.67212124 38.59998586 5.24560547 44.98413086 C5.87575992 51.93267559 6.69661815 58.83656477 7.6328125 65.75 C7.9481828 68.54136265 8.07435068 71.19591718 8 74 C1.89008468 76.20635831 -4.11400133 77.72541895 -10.5 78.875 C-16.95834066 80.0958131 -23.22595954 81.54169812 -29.5 83.5 C-41.01619882 87.06059015 -52.81731555 89.28315796 -64.74072266 90.98706055 C-74.71845143 92.42431065 -84.36388904 94.73610722 -94.12451172 97.24365234 C-102.09671436 99.28870954 -110.08366972 101.18454773 -118.125 102.9375 C-127.94395607 105.08530529 -137.74268274 107.30700274 -147.527771 109.60354614 C-148.97927089 109.9441457 -150.43096379 110.28392403 -151.88287354 110.62277222 C-169.0515779 114.40311316 -169.0515779 114.40311316 -185.75 119.75 C-189 121 -189 121 -192 121 C-193.61225355 112.15511157 -194.68009204 103.32589449 -195.5 94.375 C-195.56281158 93.70044769 -195.62562317 93.02589539 -195.69033813 92.3309021 C-196.73910647 81.00430327 -197.52922378 69.66807187 -198.1875 58.3125 C-198.2302002 57.57626404 -198.27290039 56.84002808 -198.31689453 56.08148193 C-199.1704394 41.16662209 -199.1704394 41.16662209 -199 38 C-195.97609638 34.79236553 -191.77014074 33.59693762 -187.6875 32.1875 C-186.95112305 31.93105713 -186.21474609 31.67461426 -185.45605469 31.41040039 C-175.46430971 28.02792874 -165.23322962 25.52982242 -155 23 C-153.41142569 22.59778516 -151.8228822 22.19544856 -150.234375 21.79296875 C-138.31156505 18.82343459 -126.28282137 16.3506943 -114.25 13.875 C-113.42491943 13.70478333 -112.59983887 13.53456665 -111.74975586 13.35919189 C-101.98074576 11.34879665 -92.20166374 9.45891478 -82.37304688 7.76367188 C-79.31276567 7.23456271 -76.25808193 6.68092067 -73.20507812 6.11132812 C-48.57257549 1.52132823 -25.0658587 -1.10033437 0 0 Z " fill="#D39E2F" transform="translate(358,0)"/>
<path d="M0 0 C0 0.33 0 0.66 0 1 C-0.90629654 1.14367508 -0.90629654 1.14367508 -1.8309021 1.29025269 C-8.15864856 2.29379518 -14.48594224 3.30015668 -20.81298828 4.30810547 C-23.1696457 4.68316774 -25.52641501 5.05752772 -27.88330078 5.43115234 C-31.28448155 5.97045162 -34.68524274 6.51233303 -38.0859375 7.0546875 C-39.64905167 7.301689 -39.64905167 7.301689 -41.2437439 7.55368042 C-47.5298072 8.55926069 -53.76693187 9.70794745 -60 11 C-61.8943394 11.38596635 -63.78870938 11.77178266 -65.68310547 12.1574707 C-71.22301743 13.2920492 -76.76159087 14.43309155 -82.29980469 15.57592773 C-84.66503261 16.06321896 -87.03058847 16.54892135 -89.39648438 17.03295898 C-116.5163534 22.52786235 -116.5163534 22.52786235 -143.125 30.0625 C-143.90214355 30.31217529 -144.67928711 30.56185059 -145.47998047 30.8190918 C-154.90484979 33.25304161 -154.90484979 33.25304161 -163 38 C-163.12978638 41.5810072 -162.89653981 45.17103673 -162.75 48.75 C-162.70480225 49.8858252 -162.65960449 51.02165039 -162.61303711 52.19189453 C-161.58903181 75.16562883 -159.46895659 98.14036663 -157 121 C-156.17886719 120.6596875 -155.35773438 120.319375 -154.51171875 119.96875 C-140.68303266 114.55181696 -126.18640402 111.70055982 -111.7297821 108.50520325 C-104.33871216 106.86647396 -96.98036758 105.10498868 -89.625 103.3125 C-88.44389648 103.02544189 -87.26279297 102.73838379 -86.04589844 102.44262695 C-83.77040549 101.88941811 -81.49501097 101.33580419 -79.21972656 100.78173828 C-74.31630825 99.59120557 -69.40872718 98.41842295 -64.5 97.25 C-63.32751709 96.97023315 -63.32751709 96.97023315 -62.13134766 96.68481445 C-60.59350258 96.3189813 -59.05507817 95.95557582 -57.51611328 95.59448242 C-55.68956795 95.16292431 -53.86529561 94.72170986 -52.04248047 94.2746582 C-43.78733547 92.29038131 -35.5191147 90.93438096 -27.125 89.6875 C-14.6696573 87.78038392 -2.58531441 85.10807465 9.54589844 81.68457031 C20.26073471 78.69567249 31.10820569 76.24643258 42 74 C41.50832597 67.89289098 40.86278618 61.82461323 40.0625 55.75 C39.04013816 47.96571782 38.37392599 40.16126873 37.78540039 32.33300781 C37.404948 27.57089402 36.85093918 22.94297511 35.9453125 18.25 C35.13782298 14.04738408 34.7826567 10.10646335 34.875 5.8125 C34.89304687 4.70519531 34.91109375 3.59789062 34.9296875 2.45703125 C34.96449219 1.24080078 34.96449219 1.24080078 35 0 C36.32 0 37.64 0 39 0 C39.43952274 3.02054988 39.87658098 6.04142935 40.3125 9.0625 C40.43044922 9.87138672 40.54839844 10.68027344 40.66992188 11.51367188 C42.22609121 22.32705368 43.59850202 33.165723 45 44 C45.62845825 43.87916046 46.2569165 43.75832092 46.90441895 43.63381958 C53.52348638 42.36216763 60.14391686 41.0977979 66.76513672 39.83740234 C69.22674703 39.36786522 71.68801951 38.89655305 74.14892578 38.42333984 C97.73397338 33.89033395 97.73397338 33.89033395 107.40625 32.4921875 C108.58509766 32.31800293 109.76394531 32.14381836 110.97851562 31.96435547 C114.73101616 32.00862382 116.25306724 32.41704483 119 35 C119.75003819 37.88532732 120.15454747 40.30726191 120.40625 43.2421875 C120.49666565 44.07009293 120.5870813 44.89799835 120.68023682 45.75099182 C120.87283948 47.53136453 121.05537752 49.31284906 121.22888184 51.09518433 C121.68434758 55.76514375 122.21227623 60.4269433 122.734375 65.08984375 C122.83687561 66.02125687 122.93937622 66.95266998 123.04498291 67.91230774 C124.10085036 77.31564381 125.6670267 86.58629792 127.38867188 95.88818359 C127.68354492 97.48847412 127.68354492 97.48847412 127.984375 99.12109375 C128.15678711 100.0227124 128.32919922 100.92433105 128.50683594 101.85327148 C129.91240417 110.82177098 130.27700305 119.81486014 130.55078125 128.87890625 C130.57159571 129.55941103 130.59241016 130.23991581 130.61385536 130.94104195 C131.21030783 150.93560067 131.19902349 170.93579683 131.1875 190.9375 C131.18723312 191.97548107 131.18696625 193.01346214 131.18669128 194.08289719 C131.1744051 232.44901347 130.85105647 270.81148426 130.3332513 309.17378372 C130.26755081 314.09283043 130.21050148 319.01192806 130.15707397 323.93112183 C129.86052172 350.83690507 129.43967871 377.43683562 125.84667969 404.12866211 C124.69690775 412.79878596 124.65800276 421.27907046 125 430 C125.08162688 432.15922535 125.15529968 434.31730873 125.20410156 436.47753906 C125.24659946 438.35015938 125.31738574 440.22207991 125.390625 442.09375 C125 445 125 445 123.44189453 446.81542969 C120.2724923 448.35291615 117.1271844 448.92204158 113.6796875 449.453125 C105.70926024 450.81380514 97.94947443 452.7067041 90.125 454.75 C79.09400962 457.57957631 68.03949387 460.13070278 56.875 462.375 C56.1931665 462.51207367 55.51133301 462.64914734 54.80883789 462.79037476 C54.11717529 462.92940216 53.4255127 463.06842957 52.71289062 463.21166992 C40.32268302 465.70478912 27.97212323 468.36452414 15.625 471.0625 C13.63184468 471.49751727 11.63868069 471.9324948 9.64550781 472.36743164 C6.75017997 472.999347 3.85487563 473.63136879 0.95965576 474.26377869 C-6.81538712 475.96163243 -14.59348494 477.64454965 -22.375 479.3125 C-23.81045166 479.62102905 -23.81045166 479.62102905 -25.27490234 479.93579102 C-30.25585735 481.00180849 -35.2392597 482.05052908 -40.23217773 483.05908203 C-55.0318934 486.06585056 -69.67482697 489.53939118 -84.3125 493.25 C-86.49012968 493.79729175 -88.66786379 494.34416812 -90.84570312 494.890625 C-92.91415652 495.4110848 -94.98251963 495.93190362 -97.05078125 496.453125 C-98.00994949 496.69476379 -98.96911774 496.93640259 -99.95735168 497.18536377 C-101.28230904 497.52141632 -101.28230904 497.52141632 -102.6340332 497.86425781 C-103.4076973 498.06013489 -104.18136139 498.25601196 -104.97846985 498.45782471 C-106.66970155 498.91141381 -108.33885372 499.44628457 -110 500 C-111.40824893 500.08021999 -112.81997231 500.10765977 -114.23046875 500.09765625 C-115.03291016 500.09443359 -115.83535156 500.09121094 -116.66210938 500.08789062 C-117.49548828 500.07951172 -118.32886719 500.07113281 -119.1875 500.0625 C-120.03248047 500.05798828 -120.87746094 500.05347656 -121.74804688 500.04882812 C-123.83206155 500.03705403 -125.91603977 500.0191189 -128 500 C-124.20542043 497.81678325 -120.10032737 496.8410043 -115.8984375 495.75 C-115.08656479 495.53587967 -114.27469208 495.32175934 -113.43821716 495.10115051 C-110.75191324 494.3951456 -108.06368941 493.69686193 -105.375 493 C-103.98044083 492.63701309 -103.98044083 492.63701309 -102.55770874 492.26669312 C-71.44572578 484.17827382 -40.22227776 476.89695403 -8.70782471 470.56338501 C46.93449842 459.61544796 46.93449842 459.61544796 101.89453125 445.76269531 C107.90376371 444.09210918 113.77956408 443.39406142 120 443 C119.98428955 441.86796143 119.9685791 440.73592285 119.95239258 439.56958008 C119.45171976 400.08184696 119.45171976 400.08184696 122.24609375 385.32421875 C124.18072617 375.04366049 124.17995598 364.53288822 124.29711914 354.10742188 C124.31661809 352.6499637 124.33648063 351.19251036 124.35667419 349.73506165 C124.41008449 345.80116816 124.45823756 341.86722681 124.50525212 337.93325233 C124.5559006 333.75913659 124.61097236 329.58507873 124.66539001 325.41101074 C124.7565068 318.37023323 124.84426616 311.32942005 124.92993164 304.28857422 C125.01677302 297.15343757 125.1068185 290.01835172 125.20043945 282.88330078 C125.97593698 227.4938949 125.97593698 227.4938949 126.01416397 172.10044861 C126.00032896 170.04878356 125.98902744 167.997117 125.9781189 165.94543457 C125.92665415 157.75224637 125.79525167 149.5650503 125.5625 141.375 C125.52964905 140.17612152 125.4967981 138.97724304 125.46295166 137.74203491 C124.78028645 115.47230547 121.9673718 93.94378018 118.09985352 72.03076172 C116.02161267 60.2069646 114.28135978 49.0309498 115 37 C108.85322102 38.05707187 102.70749675 39.12011654 96.5625 40.1875 C95.19984512 40.42401779 95.19984512 40.42401779 93.80966187 40.66531372 C81.60045469 42.78920072 69.42488578 45.00273402 57.30102539 47.5769043 C56.39344482 47.76679932 55.48586426 47.95669434 54.55078125 48.15234375 C53.78419189 48.31726318 53.01760254 48.48218262 52.2277832 48.65209961 C49.78798938 49.03310851 47.46548224 49.05895423 45 49 C45.10135254 49.73637695 45.20270508 50.47275391 45.30712891 51.23144531 C45.75923859 54.56937269 46.192312 57.90950195 46.625 61.25 C46.86476563 62.98830078 46.86476563 62.98830078 47.109375 64.76171875 C47.25117188 65.87675781 47.39296875 66.99179688 47.5390625 68.140625 C47.74329834 69.68024902 47.74329834 69.68024902 47.95166016 71.25097656 C48.00423529 74.2408556 47.78442185 75.61200884 46 78 C44.12475586 78.92822266 44.12475586 78.92822266 41.77734375 79.5390625 C40.87870605 79.77786133 39.98006836 80.01666016 39.05419922 80.26269531 C38.04631348 80.50600586 37.03842773 80.74931641 36 81 C34.90316895 81.26651367 33.80633789 81.53302734 32.67626953 81.80761719 C28.97626952 82.6846165 25.2705857 83.53287151 21.5625 84.375 C10.1597959 86.975979 10.1597959 86.975979 -1.14550781 89.96679688 C-9.08361285 92.21377788 -17.01473011 93.71432576 -25.15551758 95.04217529 C-50.10054988 99.12799955 -74.62800207 105.2914778 -99.19367981 111.18847656 C-105.87974056 112.79192528 -112.57076922 114.36697597 -119.27539062 115.89111328 C-120.63509286 116.20189426 -121.99477332 116.51277053 -123.35443115 116.82374573 C-125.89541606 117.4047967 -128.43783743 117.97704701 -130.98199463 118.54429626 C-137.41801269 120.0158827 -143.53848152 121.76430371 -149.68487549 124.18528748 C-153.13717589 125.40018212 -155.38744968 125.67735318 -159 125 C-161.50580029 121.61647449 -162.45140086 118.75811663 -162.94921875 114.61328125 C-163.07490234 113.59169922 -163.20058594 112.57011719 -163.33007812 111.51757812 C-163.50700195 109.93106445 -163.50700195 109.93106445 -163.6875 108.3125 C-163.81705078 107.27416016 -163.94660156 106.23582031 -164.08007812 105.16601562 C-164.84061681 98.74771297 -165.16990798 92.46099825 -165 86 C-198.12401896 92.1381738 -230.95861314 98.50784129 -263.24047852 108.26318359 C-266.1446136 109.0386131 -269.02930142 109.551479 -272 110 C-271.69199463 110.52182861 -271.38398926 111.04365723 -271.06665039 111.58129883 C-266.95773125 120.89854806 -267.63089937 133.5184398 -267.16601562 143.6026001 C-266.58247706 156.06025394 -265.64914084 168.39395023 -264.10791016 180.7746582 C-262.82545059 191.12129491 -262.00402352 201.48298152 -261.23828125 211.87890625 C-261.00124264 214.98372346 -260.7386695 218.08538174 -260.46875 221.1875 C-259.32938696 234.55602635 -258.67828719 247.89099898 -258.42944336 261.30273438 C-258.2428537 269.69342136 -257.70559948 278.00664458 -257.01171875 286.37109375 C-256.28987111 295.18889074 -255.8013551 303.97103596 -255.61328125 312.81640625 C-255.58972061 313.90694305 -255.56615997 314.99747986 -255.54188538 316.12106323 C-255.49301292 318.40582213 -255.44417025 320.69058167 -255.39535522 322.9753418 C-254.80526518 348.52287179 -253.12175317 373.924552 -250.9140892 399.3803215 C-250.69182827 401.94995929 -250.47309715 404.51987712 -250.2550354 407.08987427 C-248.60127725 426.46784319 -246.54283241 445.73353508 -243.70585632 464.9765625 C-241.9927071 476.61752898 -240.81581567 488.26199542 -240 500 C-241.65 500 -243.3 500 -245 500 C-246.22361051 493.71272471 -247.09077061 487.46804144 -247.63990784 481.09080505 C-248.30056221 473.4588685 -249.11433302 465.91429372 -250.36549377 458.35415649 C-252.92267569 442.89311252 -254.53323773 427.37947415 -255.87712097 411.7733078 C-256.06577512 409.58704547 -256.25779962 407.40109564 -256.45007324 405.21514893 C-258.8723057 377.47554464 -260.16050567 349.72361326 -261.06274414 321.89697266 C-261.16122298 318.87661444 -261.26019597 315.8562728 -261.359375 312.8359375 C-261.38296522 312.10789602 -261.40655544 311.37985455 -261.43086052 310.62975121 C-261.78935021 299.74307756 -262.4433341 288.90637955 -263.31402588 278.04695129 C-264.01652725 269.21393999 -264.3430475 260.41949196 -264.5 251.5625 C-264.71821279 242.03739169 -265.02978041 232.58106621 -266.13110352 223.11010742 C-267.07166702 214.91255893 -267.64548631 206.69402466 -268.24768066 198.46621704 C-269.21354659 185.28121545 -270.35486262 172.17346421 -272.01318359 159.05395508 C-273.04266164 150.5562942 -273.4548912 142.08612203 -273.62158203 133.52978516 C-273.78258696 126.84076235 -274.65900798 120.54978721 -276 114 C-276.33882656 112.00092329 -276.67544172 110.00144274 -277 108 C-273.55901776 104.96041999 -269.85070806 103.84245945 -265.51171875 102.65234375 C-264.75682159 102.43936646 -264.00192444 102.22638916 -263.22415161 102.00695801 C-260.71504794 101.3052856 -258.20189527 100.61995298 -255.6875 99.9375 C-254.82184418 99.70000031 -253.95618835 99.46250061 -253.06430054 99.21780396 C-238.08690358 95.12644662 -223.00105662 91.64844252 -207.8125 88.4375 C-206.81439301 88.22608368 -205.81628601 88.01466736 -204.78793335 87.79684448 C-175.22822724 81.57078013 -175.22822724 81.57078013 -166 82 C-166.15339844 80.72253906 -166.30679688 79.44507812 -166.46484375 78.12890625 C-167.32914458 70.32580933 -167.59925813 62.4936199 -167.89160156 54.65185547 C-167.99249418 52.1836221 -168.1300684 49.71995946 -168.2734375 47.25390625 C-168.33020358 45.83601919 -168.38501682 44.41805205 -168.4375 43 C-168.49808594 41.7625 -168.55867188 40.525 -168.62109375 39.25 C-167.93781992 35.67463002 -166.95871162 34.24453699 -164.00610352 32.12646484 C-159.80064326 29.76501984 -155.32510341 28.29449375 -150.75 26.8125 C-149.00614014 26.24221069 -149.00614014 26.24221069 -147.22705078 25.66040039 C-118.35414817 16.54039457 -88.37857335 10.7534843 -58.64318848 5.24653625 C-54.19675807 4.4215654 -49.76549168 3.54882978 -45.33984375 2.6171875 C-30.19964339 -0.47071751 -15.39028035 -0.42528142 0 0 Z " fill="#222422" transform="translate(323,0)"/>
<path d="M0 0 C4.20138021 0.40397887 5.37310704 1.21430758 8.25 4.3125 C13.34974591 12.78751126 16.34767932 21.34894921 15.25 31.3125 C13.99024675 34.3359078 13.06021593 35.72579191 10.4375 37.625 C7.44277955 38.56619786 5.37650508 38.75914358 2.25 38.3125 C-3.74846724 33.84852438 -5.57715781 27.42285578 -6.75 20.3125 C-7.62352955 6.89038255 -7.62352955 6.89038255 -3.75 1.3125 C-2.75 0.3125 -2.75 0.3125 0 0 Z " fill="#9056F2" transform="translate(208.75,46.6875)"/>
<path d="M0 0 C4.68501842 -0.32686175 7.33158513 -0.00998143 11 3 C17.30768551 11.09425539 19.47683534 20.81892113 19 31 C17.65217004 33.76075397 16.67514461 35.51110218 14.1875 37.3125 C11.19277955 38.25369786 9.12650508 38.44664358 6 38 C-0.03832295 33.3659382 -1.99494173 27.30461994 -3 20 C-3.46747172 12.6732797 -3.63032359 6.50432976 0 0 Z " fill="#9056F3" transform="translate(248,37)"/>
<path d="M0 0 C5.75424935 3.75787713 9.02924526 8.3862807 11 15 C11.41601594 17.775301 11.56938347 20.50833998 11.625 23.3125 C11.64804199 23.99417236 11.67108398 24.67584473 11.69482422 25.37817383 C11.63559513 29.20033025 11.06285678 30.91910791 8.69921875 33.9609375 C5.2754233 36.54736474 3.19111499 36.41089363 -1 36 C-4.28681963 30.04651538 -5.9896455 24.67159471 -7.1875 18 C-7.35185547 17.14921875 -7.51621094 16.2984375 -7.68554688 15.421875 C-8.65620974 10.29740387 -9.40631988 5.18120836 -10 0 C-6.20379936 -2.62813891 -4.0672009 -1.87091242 0 0 Z " fill="#9056F3" transform="translate(232,44)"/>
<path d="M0 0 C2.4375 1 2.4375 1 4 2 C4 3.32 4 4.64 4 6 C3.01 6 2.02 6 1 6 C0.67 5.34 0.34 4.68 0 4 C-2.02463255 3.34786708 -2.02463255 3.34786708 -4 3 C-3.09680825 10.09650663 -0.33668119 13.07051772 4.80078125 17.91015625 C8.72317423 21.63747463 11.17925665 24.72465981 11.4375 30.1875 C11 34 11 34 9.75 35.6796875 C6.5652091 38.08249849 2.89747867 38.23216028 -1 38 C-3.5625 36.375 -3.5625 36.375 -5 34 C-5.25 31.25 -5.25 31.25 -5 29 C-1.5767866 30.4165021 -0.17515341 32.06827149 2 35 C2.99 35.33 3.98 35.66 5 36 C5.33503332 31.27534642 4.78441512 28.96044465 1.9375 25.1875 C1.30457031 24.32898438 0.67164063 23.47046875 0.01953125 22.5859375 C-1.29269003 20.90568511 -2.62765722 19.24286535 -3.98828125 17.6015625 C-10.23613156 10.02135487 -10.23613156 10.02135487 -10 4 C-7.98626119 -0.90848835 -4.86342704 -0.51193969 0 0 Z " fill="#9056F1" transform="translate(319,22)"/>
<path d="M0 0 C0 0.66 0 1.32 0 2 C-2.64 2.33 -5.28 2.66 -8 3 C-7.41823008 5.50037284 -6.83485858 8.00034892 -6.25 10.5 C-6.07243164 11.26014404 -5.89486328 12.02028809 -5.71191406 12.8034668 C-4.78955352 16.72836218 -3.84504555 20.64521773 -2.84375 24.55078125 C-2.66038086 25.2675 -2.47701172 25.98421875 -2.28808594 26.72265625 C-1.93612492 28.0896192 -1.58016454 29.45556024 -1.21972656 30.8203125 C-0.39068405 34.0430693 0 36.63452501 0 40 C-1.32 40 -2.64 40 -4 40 C-7.94475344 29.67649632 -12 17.14385594 -12 6 C-14.97 6 -17.94 6 -21 6 C-21 5.34 -21 4.68 -21 4 C-18.62734939 3.32382476 -16.25244645 2.65891774 -13.875 2 C-13.20984375 1.80921875 -12.5446875 1.6184375 -11.859375 1.421875 C-7.8013795 0.30791545 -4.20314026 -0.20950232 0 0 Z " fill="#9258ED" transform="translate(347,15)"/>
<path d="M0 0 C3.60107775 0.93701513 4.78260042 1.6464852 6.765625 4.87109375 C9.74026394 12.0180552 12.67211835 19.08860697 12 27 C11.34 27.99 10.68 28.98 10 30 C7.57270623 29.63438253 6.34646679 29.44383981 4.8046875 27.46875 C0.46790889 18.28498354 -0.30809273 10.11571142 0 0 Z " fill="#D29D33" transform="translate(208,51)"/>
<path d="M0 0 C0 0.66 0 1.32 0 2 C-2.31 2.33 -4.62 2.66 -7 3 C-5.27431681 12.38603294 -3.1619341 21.56183809 -0.53833008 30.73950195 C-0.3245874 31.51124756 -0.11084473 32.28299316 0.109375 33.078125 C0.30499023 33.76293945 0.50060547 34.44775391 0.70214844 35.15332031 C1 37 1 37 0 40 C-1.32 40 -2.64 40 -4 40 C-6.48840871 31.09478102 -8.65546917 22.22633772 -10.38671875 13.14453125 C-10.8566889 10.73481171 -11.3703667 8.3714226 -12 6 C-14.64 6 -17.28 6 -20 6 C-20 5.34 -20 4.68 -20 4 C-17.60612843 3.32550034 -15.21030779 2.66023359 -12.8125 2 C-12.13896484 1.80921875 -11.46542969 1.6184375 -10.77148438 1.421875 C-7.09444844 0.4174164 -3.8149818 -0.23704741 0 0 Z " fill="#9157EE" transform="translate(195,50)"/>
<path d="M0 0 C1.80078125 0.1015625 1.80078125 0.1015625 4 1 C5.66796875 3.8359375 5.66796875 3.8359375 7.1875 7.375 C7.69667969 8.53773437 8.20585937 9.70046875 8.73046875 10.8984375 C10.53629602 15.31021244 11.11358668 18.43643888 11.0625 23.1875 C11.05347656 24.27417969 11.04445313 25.36085938 11.03515625 26.48046875 C11.02355469 27.31191406 11.01195312 28.14335938 11 29 C9.35 29.33 7.7 29.66 6 30 C5.36690809 28.81679424 4.74403282 27.62812152 4.125 26.4375 C3.77695313 25.77621094 3.42890625 25.11492187 3.0703125 24.43359375 C0.49981242 18.58898956 -0.23758685 13.42365686 -0.125 7.0625 C-0.11597656 6.37865234 -0.10695312 5.69480469 -0.09765625 4.99023438 C-0.07438958 3.32666713 -0.03853167 1.66328369 0 0 Z " fill="#D39D33" transform="translate(251,41)"/>
<path d="M0 0 C0.99 0 1.98 0 3 0 C6.16856498 10.93342779 8.96720077 21.79481398 11 33 C15.95 32.505 15.95 32.505 21 32 C21 32.66 21 33.32 21 34 C12.13141314 37.60756076 12.13141314 37.60756076 8 37 C5.05545618 34.05545618 4.81785519 30.45309911 4 26.5 C3.82629883 25.68426514 3.65259766 24.86853027 3.47363281 24.02807617 C3.13079817 22.41183273 2.79119679 20.79489955 2.45507812 19.17724609 C2.08208557 17.39272483 1.69189296 15.61180663 1.296875 13.83203125 C0.27222232 9.11130995 -0.21006696 4.83154006 0 0 Z " fill="#9359EA" transform="translate(281,30)"/>
<path d="M0 0 C1.65 0 3.3 0 5 0 C7.38554956 6.10672119 9.33389681 12.25763675 11.125 18.5625 C11.38925781 19.46935547 11.65351563 20.37621094 11.92578125 21.31054688 C13.32475056 26.20693946 14.43061465 30.93802532 15 36 C12.525 36.495 12.525 36.495 10 37 C9.80365967 36.23445801 9.60731934 35.46891602 9.4050293 34.68017578 C8.50126215 31.16124698 7.59440183 27.64312217 6.6875 24.125 C6.37876953 22.92101562 6.07003906 21.71703125 5.75195312 20.4765625 C3.97760335 13.6032918 2.11088191 6.77791753 0 0 Z " fill="#9057F1" transform="translate(297,26)"/>
<path d="M0 0 C4.95292825 1.9811713 5.65840035 2.28412057 8.25 6.4375 C8.75015625 7.21996094 9.2503125 8.00242187 9.765625 8.80859375 C11.81009796 12.43818024 12.15969402 15.33889834 12.1875 19.4375 C12.20167969 20.38496094 12.21585938 21.33242187 12.23046875 22.30859375 C11.99614518 25.04501644 11.39701383 26.66428123 10 29 C9.34 29 8.68 29 8 29 C5.36 19.43 2.72 9.86 0 0 Z " fill="#D29C36" transform="translate(227,48)"/>
<path d="M0 0 C0 0.99 0 1.98 0 3 C-4.1205746 4.99785435 -7.45194365 5.17835515 -12 5 C-11.67 3.68 -11.34 2.36 -11 1 C-7.32589215 -0.17571451 -3.83070817 -0.07366746 0 0 Z " fill="#9359EA" transform="translate(280,48)"/>
<path d="M0 0 C3.35435922 1.38801071 5.11290303 2.88629 7 6 C7 6.99 7 7.98 7 9 C3.76939581 8.44299928 1.9341777 7.70784878 0 5 C-0.1875 2.3125 -0.1875 2.3125 0 0 Z " fill="#955BE4" transform="translate(314,51)"/>
<path d="M0 0 C0 0.66 0 1.32 0 2 C-2.64 2.33 -5.28 2.66 -8 3 C-8.33 2.34 -8.66 1.68 -9 1 C-5.8035914 -0.06546953 -3.34252724 -0.07427838 0 0 Z " fill="#975EDE" transform="translate(347,15)"/>
</svg>
